<svg xmlns="http://www.w3.org/2000/svg" xmlns:xlink="http://www.w3.org/1999/xlink" width="400" zoomAndPan="magnify" viewBox="0 0 300 74.999997" height="100" preserveAspectRatio="xMidYMid meet" version="1.0"><defs><g/><clipPath id="cf32b9dac7"><path d="M 0 0 L 75.75 0 L 75.75 75 L 0 75 Z M 0 0 " clip-rule="nonzero"/></clipPath></defs><g fill="#000000" fill-opacity="1" class="logo-text"><g transform="translate(68.29615, 57.887675)"><g><path d="M 35.21875 -44.28125 L 35.21875 -39.40625 L 20.578125 -39.40625 L 20.578125 0 L 15.328125 0 L 15.328125 -39.40625 L 0.6875 -39.40625 L 0.6875 -44.28125 Z M 35.21875 -44.28125 "/></g></g></g><g fill="#000000" fill-opacity="1" class="logo-text"><g transform="translate(104.200238, 57.887675)"><g><path d="M 10.765625 -44.28125 L 10.765625 -4.875 L 31.015625 -4.875 L 31.015625 0 L 5.5 0 L 5.5 -44.28125 Z M 10.765625 -44.28125 "/></g></g></g><g fill="#000000" fill-opacity="1" class="logo-text"><g transform="translate(135.475575, 57.887675)"><g><path d="M 8.6875 -30.015625 C 9.769531 -30.015625 10.664062 -29.628906 11.375 -28.859375 C 12.09375 -28.085938 12.453125 -27.222656 12.453125 -26.265625 C 12.453125 -25.265625 12.0625 -24.390625 11.28125 -23.640625 C 10.507812 -22.890625 9.644531 -22.515625 8.6875 -22.515625 C 7.769531 -22.515625 6.914062 -22.878906 6.125 -23.609375 C 5.332031 -24.335938 4.9375 -25.222656 4.9375 -26.265625 C 4.9375 -27.304688 5.3125 -28.191406 6.0625 -28.921875 C 6.8125 -29.648438 7.6875 -30.015625 8.6875 -30.015625 Z M 13.203125 -6.375 L 8.0625 8.625 L 3.25 8.625 L 7.5 -6.375 Z M 2.4375 -29.265625 Z M 2.4375 -29.265625 "/></g></g></g><g fill="#000000" fill-opacity="1" class="logo-text"><g transform="translate(152.864672, 57.887675)"><g><path d="M 21.203125 -44.28125 C 27.660156 -44.28125 32.953125 -42.25 37.078125 -38.1875 C 41.210938 -34.125 43.320312 -28.773438 43.40625 -22.140625 C 43.40625 -15.554688 41.328125 -10.238281 37.171875 -6.1875 C 33.023438 -2.144531 27.742188 -0.0820312 21.328125 0 L 4.6875 0 L 4.6875 -44.28125 Z M 19.953125 -4.875 C 25.492188 -4.875 29.835938 -6.34375 32.984375 -9.28125 C 36.140625 -12.226562 37.738281 -16.515625 37.78125 -22.140625 C 37.78125 -27.554688 36.234375 -31.765625 33.140625 -34.765625 C 30.054688 -37.773438 25.660156 -39.320312 19.953125 -39.40625 L 9.9375 -39.40625 L 9.9375 -4.875 Z M 19.953125 -4.875 "/></g></g></g><g fill="#000000" fill-opacity="1" class="logo-text"><g transform="translate(199.214725, 57.887675)"><g><path d="M 17.578125 -44.28125 C 23.367188 -44.28125 27.628906 -43.320312 30.359375 -41.40625 C 33.097656 -39.488281 34.46875 -36.40625 34.46875 -32.15625 C 34.46875 -29.019531 33.535156 -26.441406 31.671875 -24.421875 C 29.816406 -22.398438 27.054688 -21.054688 23.390625 -20.390625 L 35.96875 0 L 29.515625 0 L 17.515625 -19.890625 L 10.765625 -19.890625 L 10.765625 0 L 5.5 0 L 5.5 -44.28125 Z M 17.015625 -24.765625 C 21.140625 -24.765625 24.140625 -25.335938 26.015625 -26.484375 C 27.890625 -27.628906 28.828125 -29.5 28.828125 -32.09375 C 28.828125 -34.59375 27.984375 -36.4375 26.296875 -37.625 C 24.609375 -38.8125 21.992188 -39.40625 18.453125 -39.40625 L 10.765625 -39.40625 L 10.765625 -24.765625 Z M 17.015625 -24.765625 "/></g></g></g><g fill="#000000" fill-opacity="1" class="logo-text"><g transform="translate(237.433195, 57.887675)"><g><path d="M 7.5 -44.28125 C 8.457031 -44.28125 9.289062 -43.9375 10 -43.25 C 10.71875 -42.5625 11.078125 -41.71875 11.078125 -40.71875 C 11.078125 -39.675781 10.738281 -38.820312 10.0625 -38.15625 C 9.394531 -37.488281 8.539062 -37.15625 7.5 -37.15625 C 6.457031 -37.15625 5.601562 -37.488281 4.9375 -38.15625 C 4.269531 -38.820312 3.9375 -39.675781 3.9375 -40.71875 C 3.9375 -41.71875 4.289062 -42.5625 5 -43.25 C 5.707031 -43.9375 6.539062 -44.28125 7.5 -44.28125 Z M 9.9375 -29.265625 L 9.9375 0 L 5.0625 0 L 5.0625 -29.265625 Z M 9.9375 -29.265625 "/></g></g></g><g fill="#000000" fill-opacity="1" class="logo-text"><g transform="translate(252.445357, 57.887675)"><g><path d="M 17.453125 -48.03125 C 19.078125 -48.03125 20.347656 -47.78125 21.265625 -47.28125 L 20.578125 -42.90625 C 19.410156 -43.320312 18.304688 -43.53125 17.265625 -43.53125 C 15.222656 -43.53125 13.835938 -42.9375 13.109375 -41.75 C 12.378906 -40.5625 12.015625 -38.59375 12.015625 -35.84375 L 12.015625 -29.265625 L 19.140625 -29.265625 L 19.140625 -25.140625 L 12.015625 -25.140625 L 12.015625 0 L 7.125 0 L 7.125 -25.140625 L 0.75 -25.140625 L 0.75 -29.265625 L 7.125 -29.265625 L 7.125 -35.90625 C 7.125 -43.988281 10.566406 -48.03125 17.453125 -48.03125 Z M 17.453125 -48.03125 "/></g></g></g><g fill="#000000" fill-opacity="1" class="logo-text"><g transform="translate(272.148825, 57.887675)"><g><path d="M 12.015625 -37.59375 L 12.015625 -29.265625 L 20.640625 -29.265625 L 20.640625 -25.140625 L 12.015625 -25.140625 L 12.015625 -9.5 C 12.015625 -7.164062 12.390625 -5.625 13.140625 -4.875 C 13.890625 -4.125 14.972656 -3.75 16.390625 -3.75 C 18.015625 -3.75 19.453125 -4.082031 20.703125 -4.75 L 20.890625 -0.3125 C 19.222656 0.394531 17.328125 0.75 15.203125 0.75 C 12.203125 0.75 10.101562 0.0078125 8.90625 -1.46875 C 7.71875 -2.945312 7.125 -5.375 7.125 -8.75 L 7.125 -25.140625 L 0.75 -25.140625 L 0.75 -29.265625 L 7.125 -29.265625 L 7.125 -37.59375 Z M 12.015625 -37.59375 "/></g></g></g><g clip-path="url(#cf32b9dac7)"><path fill="#662d91" d="M 51.996094 0 L 75.746094 37.492188 L 51.996094 75 L 32.488281 75 L 56.273438 37.492188 L 32.488281 0 Z M 19.511719 0 L 0.00390625 0 L 23.808594 37.492188 L 0.00390625 75 L 19.511719 75 L 43.261719 37.507812 Z M 19.511719 0 " fill-opacity="1" fill-rule="nonzero"/></g></svg>